<svg width="21" height="21" viewBox="0 0 21 21" fill="none" xmlns="http://www.w3.org/2000/svg">
<path d="M10.5 2.29688C8.87758 2.29687 7.29159 2.77798 5.94259 3.67935C4.59359 4.58072 3.54218 5.86188 2.9213 7.3608C2.30043 8.85973 2.13798 10.5091 2.4545 12.1004C2.77102 13.6916 3.55229 15.1533 4.69952 16.3005C5.84675 17.4477 7.3084 18.229 8.89965 18.5455C10.4909 18.862 12.1403 18.6996 13.6392 18.0787C15.1381 17.4578 16.4193 16.4064 17.3207 15.0574C18.222 13.7084 18.7031 12.1224 18.7031 10.5C18.7007 8.32515 17.8356 6.24008 16.2978 4.70222C14.7599 3.16437 12.6749 2.29933 10.5 2.29688ZM10.5 18.0469C9.00737 18.0469 7.54826 17.6043 6.30718 16.775C5.06611 15.9457 4.09881 14.7671 3.5276 13.3881C2.9564 12.0091 2.80694 10.4916 3.09814 9.02768C3.38934 7.56373 4.10811 6.219 5.16356 5.16355C6.21901 4.1081 7.56373 3.38933 9.02768 3.09814C10.4916 2.80694 12.0091 2.95639 13.3881 3.5276C14.7671 4.0988 15.9457 5.0661 16.775 6.30718C17.6043 7.54826 18.0469 9.00737 18.0469 10.5C18.0446 12.5009 17.2488 14.4191 15.834 15.834C14.4191 17.2488 12.5009 18.0446 10.5 18.0469ZM13.6726 9.27175C13.7373 9.32997 13.7762 9.41149 13.7808 9.4984C13.7854 9.5853 13.7552 9.67046 13.697 9.73514L10.7439 13.0164C10.7131 13.0506 10.6755 13.0779 10.6335 13.0966C10.5915 13.1153 10.546 13.125 10.5 13.125C10.454 13.125 10.4085 13.1153 10.3665 13.0966C10.3245 13.0779 10.2869 13.0506 10.2561 13.0164L7.303 9.73514C7.24522 9.67039 7.21544 9.58539 7.22019 9.49874C7.22493 9.41209 7.2638 9.33085 7.3283 9.27279C7.3928 9.21474 7.47768 9.18459 7.56435 9.18896C7.65102 9.19333 7.73242 9.23186 7.79076 9.29611L10.5 12.3064L13.2092 9.29611C13.2675 9.23143 13.349 9.19253 13.4359 9.18796C13.5228 9.18339 13.608 9.21353 13.6726 9.27175Z" fill="#FBFBFB"/>
</svg>
