<svg width="103" height="28" viewBox="0 0 103 28" fill="none" xmlns="http://www.w3.org/2000/svg">
<path d="M17.404 13.932C18.868 14.34 20.02 15.084 20.86 16.164C21.7 17.22 22.12 18.564 22.12 20.196C22.12 22.38 21.292 24.06 19.636 25.236C18.004 26.412 15.616 27 12.472 27H0.447969V1.8H11.752C14.632 1.8 16.852 2.376 18.412 3.528C19.996 4.68 20.788 6.276 20.788 8.316C20.788 9.636 20.476 10.776 19.852 11.736C19.252 12.696 18.436 13.428 17.404 13.932ZM4.04797 4.716V12.78H11.428C13.276 12.78 14.692 12.444 15.676 11.772C16.684 11.076 17.188 10.068 17.188 8.748C17.188 7.428 16.684 6.432 15.676 5.76C14.692 5.064 13.276 4.716 11.428 4.716H4.04797ZM12.328 24.084C14.368 24.084 15.904 23.748 16.936 23.076C17.968 22.404 18.484 21.348 18.484 19.908C18.484 17.1 16.432 15.696 12.328 15.696H4.04797V24.084H12.328ZM27.1901 0.287998H30.6461V27H27.1901V0.287998ZM44.1928 7.74C46.8328 7.74 48.8488 8.388 50.2408 9.684C51.6568 10.98 52.3648 12.912 52.3648 15.48V27H49.0888V24.48C48.5128 25.368 47.6848 26.052 46.6048 26.532C45.5488 26.988 44.2888 27.216 42.8248 27.216C40.6888 27.216 38.9728 26.7 37.6768 25.668C36.4048 24.636 35.7688 23.28 35.7688 21.6C35.7688 19.92 36.3808 18.576 37.6048 17.568C38.8288 16.536 40.7728 16.02 43.4368 16.02H48.9088V15.336C48.9088 13.848 48.4768 12.708 47.6128 11.916C46.7488 11.124 45.4768 10.728 43.7968 10.728C42.6688 10.728 41.5648 10.92 40.4848 11.304C39.4048 11.664 38.4928 12.156 37.7488 12.78L36.3088 10.188C37.2928 9.396 38.4688 8.796 39.8368 8.388C41.2048 7.956 42.6568 7.74 44.1928 7.74ZM43.4008 24.552C44.7208 24.552 45.8608 24.264 46.8208 23.688C47.7808 23.088 48.4768 22.248 48.9088 21.168V18.504H43.5808C40.6528 18.504 39.1888 19.488 39.1888 21.456C39.1888 22.416 39.5608 23.172 40.3048 23.724C41.0488 24.276 42.0808 24.552 43.4008 24.552ZM68.9484 7.74C71.3724 7.74 73.2924 8.448 74.7084 9.864C76.1484 11.256 76.8684 13.308 76.8684 16.02V27H73.4124V16.416C73.4124 14.568 72.9684 13.176 72.0804 12.24C71.1924 11.304 69.9204 10.836 68.2644 10.836C66.3924 10.836 64.9164 11.388 63.8364 12.492C62.7564 13.572 62.2164 15.132 62.2164 17.172V27H58.7604V7.92H62.0724V10.8C62.7684 9.816 63.7044 9.06 64.8804 8.532C66.0804 8.004 67.4364 7.74 68.9484 7.74ZM90.6803 18.108L86.7203 21.78V27H83.2643V0.287998H86.7203V17.424L97.1243 7.92H101.3L93.2723 15.804L102.092 27H97.8443L90.6803 18.108Z" fill="black"/>
</svg>
