<svg width="27" height="26" viewBox="0 0 27 26" fill="none" xmlns="http://www.w3.org/2000/svg">
<path d="M26.5313 12.8906C26.5313 10.3412 25.7753 7.84895 24.3589 5.72913C22.9425 3.60931 20.9294 1.95708 18.574 0.981382C16.2186 0.00567915 13.6268 -0.249681 11.1263 0.247592C8.62582 0.744864 6.32893 1.97244 4.52608 3.77508C2.72324 5.57773 1.49542 7.87448 0.997868 10.3749C0.500321 12.8754 0.755396 15.4672 1.73084 17.8227C2.70628 20.1782 4.35829 22.1915 6.47795 23.6081C8.59762 25.0247 11.0897 25.781 13.6392 25.7813L13.6406 25.7814L13.642 25.7813C17.0594 25.777 20.3356 24.4175 22.7519 22.0009C25.1682 19.5843 26.5274 16.308 26.5313 12.8906ZM14.1563 24.7381V15.4688H17.7656C17.9024 15.4688 18.0335 15.4144 18.1302 15.3177C18.2269 15.221 18.2813 15.0899 18.2813 14.9531C18.2813 14.8164 18.2269 14.6852 18.1302 14.5885C18.0335 14.4918 17.9024 14.4375 17.7656 14.4375H14.1563V10.8281C14.157 10.1446 14.4289 9.48928 14.9122 9.00595C15.3955 8.52262 16.0508 8.25076 16.7344 8.25H18.7969C18.9336 8.25 19.0648 8.19568 19.1615 8.09898C19.2582 8.00228 19.3125 7.87113 19.3125 7.73438C19.3125 7.59763 19.2582 7.46648 19.1615 7.36978C19.0648 7.27308 18.9336 7.21876 18.7969 7.21876H16.7344C15.7774 7.21981 14.86 7.60043 14.1833 8.27709C13.5067 8.95374 13.1261 9.87119 13.125 10.8281V14.4375H9.51563C9.37888 14.4375 9.24773 14.4918 9.15103 14.5885C9.05433 14.6852 9.00001 14.8164 9.00001 14.9531C9.00001 15.0899 9.05433 15.221 9.15103 15.3177C9.24773 15.4144 9.37888 15.4688 9.51563 15.4688H13.125V24.738C10.0273 24.6032 7.10557 23.2606 4.98576 20.9977C2.86594 18.7349 1.71664 15.7319 1.78406 12.632C1.85148 9.53207 3.13026 6.58185 5.34646 4.41333C7.56265 2.24481 10.54 1.03048 13.6406 1.03048C16.7413 1.03048 19.7186 2.24481 21.9348 4.41333C24.151 6.58185 25.4298 9.53207 25.4972 12.632C25.5646 15.7319 24.4153 18.7349 22.2955 20.9977C20.1757 23.2606 17.254 24.6032 14.1563 24.738V24.7381Z" fill="#FDFBFB"/>
</svg>
