<svg width="60" height="60" viewBox="0 0 60 60" fill="none" xmlns="http://www.w3.org/2000/svg">
<path d="M25.6152 21.3002V21.3002C25.6153 21.7307 25.2451 22.0896 24.7795 22.0896C24.314 22.0896 23.9439 21.7307 23.9439 21.3002C23.9439 20.8698 24.314 20.5108 24.7795 20.5108C25.2451 20.5108 25.6152 20.8698 25.6152 21.3002ZM37.6609 18.5469C39.001 18.5469 40.1 17.5094 40.1 16.2235C40.1 14.9376 39.0011 13.9 37.6609 13.9C36.3207 13.9 35.2217 14.9376 35.2217 16.2235C35.2217 16.7207 35.3867 17.1816 35.6663 17.5593L31.9105 22.5481C31.6916 22.4864 31.46 22.4529 31.2203 22.4529C30.6065 22.4529 30.0446 22.6704 29.6151 23.0289L27.1795 21.7152C27.2052 21.5806 27.2188 21.442 27.2188 21.3003C27.2188 20.0144 26.1199 18.9769 24.7797 18.9769C23.4395 18.9769 22.3406 20.0144 22.3406 21.3003C22.3406 21.442 22.3542 21.5806 22.38 21.7152L19.9444 23.0289C19.5149 22.6704 18.9529 22.4529 18.3391 22.4529C16.9989 22.4529 15.9 23.4905 15.9 24.7764C15.9 26.0624 16.9989 27.0999 18.3391 27.0999C19.6793 27.0999 20.7783 26.0624 20.7783 24.7764C20.7783 24.6348 20.7646 24.4961 20.7389 24.3615L23.1745 23.0478C23.604 23.4063 24.1659 23.6239 24.7797 23.6239C25.3935 23.6239 25.9554 23.4063 26.3849 23.0479L28.8205 24.3616C28.7948 24.4962 28.7812 24.6349 28.7812 24.7765C28.7812 26.0624 29.8801 27.1 31.2203 27.1C32.5606 27.1 33.6595 26.0624 33.6595 24.7765C33.6595 24.2792 33.4945 23.8183 33.2148 23.4405L36.9707 18.4517C37.1895 18.5133 37.4212 18.5469 37.6609 18.5469ZM37.6609 15.434C38.1264 15.434 38.4965 15.7929 38.4965 16.2235C38.4965 16.6539 38.1264 17.0128 37.6609 17.0128C37.1953 17.0128 36.8252 16.6539 36.8252 16.2235C36.8251 15.793 37.1952 15.434 37.6609 15.434ZM18.3389 25.5657C17.8733 25.5657 17.5032 25.2068 17.5032 24.7763C17.5032 24.3457 17.8733 23.9868 18.3389 23.9868C18.8044 23.9868 19.1745 24.3457 19.1745 24.7763C19.1745 25.2068 18.8044 25.5657 18.3389 25.5657ZM31.2202 25.5657C30.7547 25.5657 30.3845 25.2068 30.3845 24.7763C30.3845 24.3457 30.7547 23.9868 31.2202 23.9868C31.6858 23.9868 32.0559 24.3457 32.0559 24.7763C32.0559 25.2068 31.6857 25.5657 31.2202 25.5657Z" fill="#4F4F4F" stroke="#4F4F4F" stroke-width="0.2"/>
<path d="M35.7502 52.0147L35.7503 52.0147C36.1366 51.8194 36.2907 51.3511 36.0918 50.9682L32.9346 44.8866H39.6382C40.5524 44.8866 41.2983 44.1527 41.2983 43.2474V41.8576H45.3139C45.7467 41.8576 46.1 41.5111 46.1 41.0806C46.1 40.6502 45.7467 40.3037 45.3139 40.3037H40.5121H14.358H8.94087C8.6813 40.3037 8.47229 40.0956 8.47229 39.8427V11.9148C8.47229 11.662 8.6813 11.4539 8.94087 11.4539H12.1754C14.3279 11.4539 15.9374 11.4144 17.0097 11.3278C17.545 11.2846 17.9513 11.2293 18.2257 11.1598C18.3621 11.1252 18.4729 11.0855 18.5519 11.0378C18.6233 10.9946 18.6911 10.9305 18.6989 10.8395C18.7367 10.7109 18.7133 10.5908 18.6325 10.4886C18.554 10.3895 18.4268 10.3139 18.2718 10.2536C17.9605 10.1325 17.4881 10.0546 16.9015 10.0031C15.726 9.9 14.0498 9.9 12.1805 9.9H12.1754H8.94087C7.81672 9.9 6.9 10.8025 6.9 11.9148V39.8427C6.9 40.9551 7.81672 41.8576 8.94087 41.8576H13.5719V43.2474C13.5719 44.1526 14.3178 44.8866 15.232 44.8866H21.9356L18.7783 50.9682L18.8671 51.0143C18.6943 51.3471 18.8276 51.7549 19.1649 51.9254L19.1198 52.0147C19.1198 52.0147 19.1198 52.0147 19.1198 52.0147C19.2343 52.0726 19.3567 52.1 19.4772 52.1C19.7618 52.1 20.0377 51.9464 20.1772 51.6775L23.7027 44.8866H31.1674L34.693 51.6776C34.8326 51.9464 35.1083 52.1 35.393 52.1C35.5136 52.1 35.6359 52.0724 35.7502 52.0147ZM39.726 43.2474C39.726 43.2931 39.6878 43.3327 39.6382 43.3327H15.232C15.1824 43.3327 15.1442 43.2931 15.1442 43.2474V41.8576H39.726V43.2474Z" fill="#4F4F4F" stroke="#4F4F4F" stroke-width="0.2"/>
<path d="M24.9818 8.69026V8.68367C24.9855 8.55549 25.0949 8.44747 25.2347 8.44747H29.4533C29.5954 8.44747 29.7062 8.55923 29.7062 8.69026V9.91455H24.9818V8.69026ZM14.6936 11.462H24.1882H30.4997H46.0381C46.3026 11.462 46.5129 11.6704 46.5129 11.9203V18.3263C46.5129 18.7564 46.8709 19.1 47.3064 19.1C47.7419 19.1 48.1 18.7564 48.1 18.3263V11.9203C48.1 10.8115 47.1724 9.91455 46.0381 9.91455H31.2934V8.69026C31.2934 7.70032 30.4653 6.9 29.4533 6.9H25.2347C24.2228 6.9 23.3946 7.70031 23.3946 8.69026V9.91455H14.6936C14.2581 9.91455 13.9 10.2582 13.9 10.6883C13.9 11.1184 14.2581 11.462 14.6936 11.462Z" fill="#4F4F4F" stroke="#4F4F4F" stroke-width="0.2"/>
<path d="M16.6604 30.9C16.2426 30.9 15.9 31.2318 15.9 31.646V37.354C15.9 37.7682 16.2426 38.1 16.6604 38.1H19.3396C19.7574 38.1 20.1 37.7682 20.1 37.354V31.646C20.1 31.2318 19.7574 30.9 19.3396 30.9H16.6604ZM18.5792 36.6081H17.4208V32.392H18.5792V36.6081Z" fill="#4F4F4F" stroke="#4F4F4F" stroke-width="0.2"/>
<path d="M22.6604 26.9C22.2364 26.9 21.9 27.2577 21.9 27.6898V37.3102C21.9 37.7423 22.2364 38.1 22.6604 38.1H25.3396C25.7636 38.1 26.1 37.7423 26.1 37.3102V27.6898C26.1 27.2577 25.7636 26.9 25.3396 26.9H22.6604ZM24.5793 36.5204H23.4209V28.4796H24.5793V36.5204Z" fill="#4F4F4F" stroke="#4F4F4F" stroke-width="0.2"/>
<path d="M29.6604 30.9C29.2426 30.9 28.9 31.2318 28.9 31.646V37.354C28.9 37.7682 29.2426 38.1 29.6604 38.1H32.3396C32.7574 38.1 33.1 37.7682 33.1 37.354V31.646C33.1 31.2318 32.7574 30.9 32.3396 30.9H29.6604ZM31.5792 36.6081H30.4208V32.392H31.5792V36.6081Z" fill="#4F4F4F" stroke="#4F4F4F" stroke-width="0.2"/>
<path d="M35.6604 34.9C35.2484 34.9 34.9 35.2092 34.9 35.6078V37.3922C34.9 37.7908 35.2484 38.1 35.6604 38.1H38.3396C38.7516 38.1 39.1 37.7908 39.1 37.3922C39.1 36.9935 38.7516 36.6843 38.3396 36.6843H36.4208V35.6078C36.4208 35.2092 36.0724 34.9 35.6604 34.9Z" fill="#4F4F4F" stroke="#4F4F4F" stroke-width="0.2"/>
<path d="M51.9897 42.5118L51.9413 42.4243C52.2958 42.2282 52.5141 41.8634 52.5141 41.4745C52.5141 41.285 52.4613 41.0963 52.3607 40.929L51.9897 42.5118ZM51.9897 42.5118L51.9413 42.4243C51.3905 42.7291 50.6854 42.546 50.3702 42.0226L46.607 35.7736C46.9561 35.632 47.2985 35.4693 47.6321 35.2847C47.9682 35.0987 48.288 34.8936 48.5922 34.6727L52.3606 40.9289L51.9897 42.5118ZM53.7323 40.1618L53.7323 40.1618L49.7966 33.628C50.7877 32.5976 51.5105 31.3456 51.8999 29.953C52.5335 27.6865 52.2081 25.3187 50.9844 23.2872C48.4587 19.0939 42.8486 17.6554 38.4783 20.0738C34.1056 22.4935 32.5987 27.8755 35.126 32.0713C36.3496 34.1026 38.3249 35.5548 40.6862 36.1613L40.711 36.0645L40.6862 36.1613C41.4746 36.3638 42.2747 36.464 43.0698 36.464C43.7406 36.464 44.4077 36.3926 45.061 36.2513L48.9985 42.7897C49.5052 43.6314 50.4264 44.1001 51.3697 44.1C51.8325 44.1 52.3016 43.9872 52.7308 43.7498L52.7308 43.7498C53.574 43.2833 54.1 42.4122 54.1 41.4744C54.1 41.015 53.9727 40.5613 53.7323 40.1618ZM41.0946 34.6845C39.14 34.1825 37.508 32.9816 36.4974 31.304C34.4128 27.8432 35.6526 23.3999 39.268 21.3992C40.4576 20.7409 41.7578 20.4282 43.0422 20.4282C45.6631 20.4282 48.2132 21.7311 49.6128 24.0546C50.6232 25.7321 50.8913 27.6851 50.3685 29.5554C49.8456 31.4258 48.594 32.9898 46.8421 33.9593C45.0903 34.9288 43.0493 35.1864 41.0946 34.6845Z" fill="#4F4F4F" stroke="#4F4F4F" stroke-width="0.2"/>
<path d="M48.4285 25.3187L48.4285 25.3187C48.0365 25.5034 47.8685 25.9706 48.0532 26.3625C48.5885 27.4986 48.6774 28.7875 48.3032 29.9924C47.9271 31.2037 47.1146 32.2202 46.0152 32.8549L46.0652 32.9415L46.0152 32.8549C44.8517 33.5267 43.4967 33.7048 42.1991 33.3572C40.9014 33.0095 39.8171 32.1776 39.1454 31.0143L39.0599 31.0636L39.1454 31.0143C37.7589 28.6131 38.5848 25.5315 40.9862 24.1451C42.7422 23.1316 44.9211 23.267 46.538 24.4902C46.8835 24.7516 47.3754 24.6836 47.6368 24.338C47.8981 23.9926 47.8301 23.5007 47.4845 23.2394C45.3637 21.6347 42.5047 21.4571 40.2017 22.7866C38.6757 23.6676 37.5837 25.0905 37.1276 26.7925C36.6715 28.4944 36.9057 30.2726 37.7868 31.7985C38.6678 33.3245 40.0909 34.4163 41.793 34.8724C42.3612 35.0247 42.938 35.1 43.5112 35.1C44.6547 35.1 45.7832 34.8001 46.7995 34.2133C48.2418 33.3809 49.3079 32.047 49.8014 30.4576C50.292 28.8776 50.1752 27.1857 49.4723 25.694L49.3819 25.7367L49.4723 25.694C49.2877 25.3021 48.8204 25.1342 48.4285 25.3187Z" fill="#4F4F4F" stroke="#4F4F4F" stroke-width="0.2"/>
</svg>
