<svg width="60" height="60" viewBox="0 0 60 60" fill="none" xmlns="http://www.w3.org/2000/svg">
<mask id="path-1-outside-1" maskUnits="userSpaceOnUse" x="6" y="6" width="48" height="48" fill="black">
<rect fill="white" x="6" y="6" width="48" height="48"/>
<path d="M50.7 16.9674H49.1667V16.2007H49.9333C50.5433 16.2007 51.1283 15.9584 51.5597 15.527C51.991 15.0957 52.2333 14.5107 52.2333 13.9007C52.2333 13.2907 51.991 12.7057 51.5597 12.2744C51.1283 11.843 50.5433 11.6007 49.9333 11.6007H49.1667V7.76737C49.1678 7.64733 49.1398 7.52882 49.085 7.422C49.0303 7.31517 48.9504 7.22322 48.8523 7.15403C48.7574 7.08213 48.6468 7.03356 48.5296 7.01226C48.4124 6.99095 48.2919 6.99749 48.1777 7.03137L38.3183 10.0674H33.0667C32.8633 10.0674 32.6683 10.1481 32.5245 10.2919C32.3808 10.4357 32.3 10.6307 32.3 10.834V11.6007H30.7667C30.5633 11.6007 30.3683 11.6815 30.2246 11.8253C30.0808 11.969 30 12.164 30 12.3674V15.434C30 15.6374 30.0808 15.8324 30.2246 15.9761C30.3683 16.1199 30.5633 16.2007 30.7667 16.2007H32.3V16.9674H27.7V10.0674C27.7 9.86403 27.6192 9.66903 27.4754 9.52525C27.3317 9.38147 27.1367 9.3007 26.9333 9.3007H11.6C11.3967 9.3007 11.2017 9.38147 11.0579 9.52525C10.9141 9.66903 10.8333 9.86403 10.8333 10.0674V16.9674H9.3C8.69056 16.9692 8.1066 17.2121 7.67567 17.643C7.24473 18.074 7.00182 18.6579 7 19.2674V43.8007C7.00182 44.4101 7.24473 44.9941 7.67567 45.425C8.1066 45.856 8.69056 46.0989 9.3 46.1007H26.9333V48.4007H22.3333C22.13 48.4007 21.935 48.4815 21.7912 48.6252C21.6474 48.769 21.5667 48.964 21.5667 49.1674V52.234C21.5667 52.4374 21.6474 52.6324 21.7912 52.7761C21.935 52.9199 22.13 53.0007 22.3333 53.0007H37.6667C37.87 53.0007 38.065 52.9199 38.2088 52.7761C38.3526 52.6324 38.4333 52.4374 38.4333 52.234V49.1674C38.4333 48.964 38.3526 48.769 38.2088 48.6252C38.065 48.4815 37.87 48.4007 37.6667 48.4007H33.0667V46.1007H50.7C51.3094 46.0989 51.8934 45.856 52.3243 45.425C52.7553 44.9941 52.9982 44.4101 53 43.8007V19.2674C52.9982 18.6579 52.7553 18.074 52.3243 17.643C51.8934 17.2121 51.3094 16.9692 50.7 16.9674ZM49.1667 13.134H49.9333C50.1367 13.134 50.3317 13.2148 50.4754 13.3586C50.6192 13.5024 50.7 13.6974 50.7 13.9007C50.7 14.104 50.6192 14.299 50.4754 14.4428C50.3317 14.5866 50.1367 14.6674 49.9333 14.6674H49.1667V13.134ZM39.2 11.4014L47.6333 8.80237V18.999L39.2 16.4V11.4014ZM33.8333 11.6007H37.6667V16.2007H33.8333V11.6007ZM36.0183 17.734L35.4663 21.5674H34.6V17.734H36.0183ZM31.5333 14.6674V13.134H32.3V14.6674H31.5333ZM12.3667 10.834H26.1667V21.5674H12.3667V10.834ZM36.9 49.934V51.4674H23.1V49.934H36.9ZM28.4667 48.4007V46.1007H31.5333V48.4007H28.4667ZM51.4667 43.8007C51.4667 44.004 51.3859 44.199 51.2421 44.3428C51.0983 44.4866 50.9033 44.5674 50.7 44.5674H9.3C9.09667 44.5674 8.90166 44.4866 8.75788 44.3428C8.61411 44.199 8.53333 44.004 8.53333 43.8007V43.034H51.4667V43.8007ZM51.4667 41.5007H8.53333V19.2674C8.53333 19.064 8.61411 18.869 8.75788 18.7252C8.90166 18.5815 9.09667 18.5007 9.3 18.5007H10.8333V22.334C10.8333 22.5374 10.9141 22.7324 11.0579 22.8761C11.2017 23.0199 11.3967 23.1007 11.6 23.1007H26.9333C27.1367 23.1007 27.3317 23.0199 27.4754 22.8761C27.6192 22.7324 27.7 22.5374 27.7 22.334V18.5007H33.0667V22.334C33.0667 22.5374 33.1474 22.7324 33.2912 22.8761C33.435 23.0199 33.63 23.1007 33.8333 23.1007H36.1333C36.3181 23.1007 36.4965 23.034 36.636 22.9128C36.7754 22.7917 36.8665 22.6243 36.8923 22.4414L37.567 17.734H38.3183L48.1777 20.77C48.2497 20.792 48.3247 20.8023 48.4 20.8007C48.6024 20.7977 48.7957 20.716 48.9388 20.5729C49.082 20.4297 49.1637 20.2364 49.1667 20.034V18.5007H50.7C50.9033 18.5007 51.0983 18.5815 51.2421 18.7252C51.3859 18.869 51.4667 19.064 51.4667 19.2674V41.5007Z"/>
</mask>
<path d="M50.7 16.9674H49.1667V16.2007H49.9333C50.5433 16.2007 51.1283 15.9584 51.5597 15.527C51.991 15.0957 52.2333 14.5107 52.2333 13.9007C52.2333 13.2907 51.991 12.7057 51.5597 12.2744C51.1283 11.843 50.5433 11.6007 49.9333 11.6007H49.1667V7.76737C49.1678 7.64733 49.1398 7.52882 49.085 7.422C49.0303 7.31517 48.9504 7.22322 48.8523 7.15403C48.7574 7.08213 48.6468 7.03356 48.5296 7.01226C48.4124 6.99095 48.2919 6.99749 48.1777 7.03137L38.3183 10.0674H33.0667C32.8633 10.0674 32.6683 10.1481 32.5245 10.2919C32.3808 10.4357 32.3 10.6307 32.3 10.834V11.6007H30.7667C30.5633 11.6007 30.3683 11.6815 30.2246 11.8253C30.0808 11.969 30 12.164 30 12.3674V15.434C30 15.6374 30.0808 15.8324 30.2246 15.9761C30.3683 16.1199 30.5633 16.2007 30.7667 16.2007H32.3V16.9674H27.7V10.0674C27.7 9.86403 27.6192 9.66903 27.4754 9.52525C27.3317 9.38147 27.1367 9.3007 26.9333 9.3007H11.6C11.3967 9.3007 11.2017 9.38147 11.0579 9.52525C10.9141 9.66903 10.8333 9.86403 10.8333 10.0674V16.9674H9.3C8.69056 16.9692 8.1066 17.2121 7.67567 17.643C7.24473 18.074 7.00182 18.6579 7 19.2674V43.8007C7.00182 44.4101 7.24473 44.9941 7.67567 45.425C8.1066 45.856 8.69056 46.0989 9.3 46.1007H26.9333V48.4007H22.3333C22.13 48.4007 21.935 48.4815 21.7912 48.6252C21.6474 48.769 21.5667 48.964 21.5667 49.1674V52.234C21.5667 52.4374 21.6474 52.6324 21.7912 52.7761C21.935 52.9199 22.13 53.0007 22.3333 53.0007H37.6667C37.87 53.0007 38.065 52.9199 38.2088 52.7761C38.3526 52.6324 38.4333 52.4374 38.4333 52.234V49.1674C38.4333 48.964 38.3526 48.769 38.2088 48.6252C38.065 48.4815 37.87 48.4007 37.6667 48.4007H33.0667V46.1007H50.7C51.3094 46.0989 51.8934 45.856 52.3243 45.425C52.7553 44.9941 52.9982 44.4101 53 43.8007V19.2674C52.9982 18.6579 52.7553 18.074 52.3243 17.643C51.8934 17.2121 51.3094 16.9692 50.7 16.9674ZM49.1667 13.134H49.9333C50.1367 13.134 50.3317 13.2148 50.4754 13.3586C50.6192 13.5024 50.7 13.6974 50.7 13.9007C50.7 14.104 50.6192 14.299 50.4754 14.4428C50.3317 14.5866 50.1367 14.6674 49.9333 14.6674H49.1667V13.134ZM39.2 11.4014L47.6333 8.80237V18.999L39.2 16.4V11.4014ZM33.8333 11.6007H37.6667V16.2007H33.8333V11.6007ZM36.0183 17.734L35.4663 21.5674H34.6V17.734H36.0183ZM31.5333 14.6674V13.134H32.3V14.6674H31.5333ZM12.3667 10.834H26.1667V21.5674H12.3667V10.834ZM36.9 49.934V51.4674H23.1V49.934H36.9ZM28.4667 48.4007V46.1007H31.5333V48.4007H28.4667ZM51.4667 43.8007C51.4667 44.004 51.3859 44.199 51.2421 44.3428C51.0983 44.4866 50.9033 44.5674 50.7 44.5674H9.3C9.09667 44.5674 8.90166 44.4866 8.75788 44.3428C8.61411 44.199 8.53333 44.004 8.53333 43.8007V43.034H51.4667V43.8007ZM51.4667 41.5007H8.53333V19.2674C8.53333 19.064 8.61411 18.869 8.75788 18.7252C8.90166 18.5815 9.09667 18.5007 9.3 18.5007H10.8333V22.334C10.8333 22.5374 10.9141 22.7324 11.0579 22.8761C11.2017 23.0199 11.3967 23.1007 11.6 23.1007H26.9333C27.1367 23.1007 27.3317 23.0199 27.4754 22.8761C27.6192 22.7324 27.7 22.5374 27.7 22.334V18.5007H33.0667V22.334C33.0667 22.5374 33.1474 22.7324 33.2912 22.8761C33.435 23.0199 33.63 23.1007 33.8333 23.1007H36.1333C36.3181 23.1007 36.4965 23.034 36.636 22.9128C36.7754 22.7917 36.8665 22.6243 36.8923 22.4414L37.567 17.734H38.3183L48.1777 20.77C48.2497 20.792 48.3247 20.8023 48.4 20.8007C48.6024 20.7977 48.7957 20.716 48.9388 20.5729C49.082 20.4297 49.1637 20.2364 49.1667 20.034V18.5007H50.7C50.9033 18.5007 51.0983 18.5815 51.2421 18.7252C51.3859 18.869 51.4667 19.064 51.4667 19.2674V41.5007Z" fill="#4F4F4F"/>
<path d="M50.7 16.9674H49.1667V16.2007H49.9333C50.5433 16.2007 51.1283 15.9584 51.5597 15.527C51.991 15.0957 52.2333 14.5107 52.2333 13.9007C52.2333 13.2907 51.991 12.7057 51.5597 12.2744C51.1283 11.843 50.5433 11.6007 49.9333 11.6007H49.1667V7.76737C49.1678 7.64733 49.1398 7.52882 49.085 7.422C49.0303 7.31517 48.9504 7.22322 48.8523 7.15403C48.7574 7.08213 48.6468 7.03356 48.5296 7.01226C48.4124 6.99095 48.2919 6.99749 48.1777 7.03137L38.3183 10.0674H33.0667C32.8633 10.0674 32.6683 10.1481 32.5245 10.2919C32.3808 10.4357 32.3 10.6307 32.3 10.834V11.6007H30.7667C30.5633 11.6007 30.3683 11.6815 30.2246 11.8253C30.0808 11.969 30 12.164 30 12.3674V15.434C30 15.6374 30.0808 15.8324 30.2246 15.9761C30.3683 16.1199 30.5633 16.2007 30.7667 16.2007H32.3V16.9674H27.7V10.0674C27.7 9.86403 27.6192 9.66903 27.4754 9.52525C27.3317 9.38147 27.1367 9.3007 26.9333 9.3007H11.6C11.3967 9.3007 11.2017 9.38147 11.0579 9.52525C10.9141 9.66903 10.8333 9.86403 10.8333 10.0674V16.9674H9.3C8.69056 16.9692 8.1066 17.2121 7.67567 17.643C7.24473 18.074 7.00182 18.6579 7 19.2674V43.8007C7.00182 44.4101 7.24473 44.9941 7.67567 45.425C8.1066 45.856 8.69056 46.0989 9.3 46.1007H26.9333V48.4007H22.3333C22.13 48.4007 21.935 48.4815 21.7912 48.6252C21.6474 48.769 21.5667 48.964 21.5667 49.1674V52.234C21.5667 52.4374 21.6474 52.6324 21.7912 52.7761C21.935 52.9199 22.13 53.0007 22.3333 53.0007H37.6667C37.87 53.0007 38.065 52.9199 38.2088 52.7761C38.3526 52.6324 38.4333 52.4374 38.4333 52.234V49.1674C38.4333 48.964 38.3526 48.769 38.2088 48.6252C38.065 48.4815 37.87 48.4007 37.6667 48.4007H33.0667V46.1007H50.7C51.3094 46.0989 51.8934 45.856 52.3243 45.425C52.7553 44.9941 52.9982 44.4101 53 43.8007V19.2674C52.9982 18.6579 52.7553 18.074 52.3243 17.643C51.8934 17.2121 51.3094 16.9692 50.7 16.9674ZM49.1667 13.134H49.9333C50.1367 13.134 50.3317 13.2148 50.4754 13.3586C50.6192 13.5024 50.7 13.6974 50.7 13.9007C50.7 14.104 50.6192 14.299 50.4754 14.4428C50.3317 14.5866 50.1367 14.6674 49.9333 14.6674H49.1667V13.134ZM39.2 11.4014L47.6333 8.80237V18.999L39.2 16.4V11.4014ZM33.8333 11.6007H37.6667V16.2007H33.8333V11.6007ZM36.0183 17.734L35.4663 21.5674H34.6V17.734H36.0183ZM31.5333 14.6674V13.134H32.3V14.6674H31.5333ZM12.3667 10.834H26.1667V21.5674H12.3667V10.834ZM36.9 49.934V51.4674H23.1V49.934H36.9ZM28.4667 48.4007V46.1007H31.5333V48.4007H28.4667ZM51.4667 43.8007C51.4667 44.004 51.3859 44.199 51.2421 44.3428C51.0983 44.4866 50.9033 44.5674 50.7 44.5674H9.3C9.09667 44.5674 8.90166 44.4866 8.75788 44.3428C8.61411 44.199 8.53333 44.004 8.53333 43.8007V43.034H51.4667V43.8007ZM51.4667 41.5007H8.53333V19.2674C8.53333 19.064 8.61411 18.869 8.75788 18.7252C8.90166 18.5815 9.09667 18.5007 9.3 18.5007H10.8333V22.334C10.8333 22.5374 10.9141 22.7324 11.0579 22.8761C11.2017 23.0199 11.3967 23.1007 11.6 23.1007H26.9333C27.1367 23.1007 27.3317 23.0199 27.4754 22.8761C27.6192 22.7324 27.7 22.5374 27.7 22.334V18.5007H33.0667V22.334C33.0667 22.5374 33.1474 22.7324 33.2912 22.8761C33.435 23.0199 33.63 23.1007 33.8333 23.1007H36.1333C36.3181 23.1007 36.4965 23.034 36.636 22.9128C36.7754 22.7917 36.8665 22.6243 36.8923 22.4414L37.567 17.734H38.3183L48.1777 20.77C48.2497 20.792 48.3247 20.8023 48.4 20.8007C48.6024 20.7977 48.7957 20.716 48.9388 20.5729C49.082 20.4297 49.1637 20.2364 49.1667 20.034V18.5007H50.7C50.9033 18.5007 51.0983 18.5815 51.2421 18.7252C51.3859 18.869 51.4667 19.064 51.4667 19.2674V41.5007Z" stroke="#4F4F4F" stroke-width="0.2" mask="url(#path-1-outside-1)"/>
<path d="M20.9199 33.7048L29.45 28.2605V38.3944H11.55V28.2605L20.0801 33.7048L20.0801 33.7048C20.2062 33.7853 20.3516 33.828 20.5 33.828C20.6484 33.828 20.7938 33.7853 20.9199 33.7048L20.9199 33.7048ZM10.75 40.05H30.25C30.4628 40.05 30.6664 39.9623 30.8163 39.8069C30.9661 39.6515 31.05 39.4412 31.05 39.2222V26.7778C31.05 26.5588 30.9661 26.3485 30.8163 26.1931C30.6664 26.0377 30.4628 25.95 30.25 25.95H10.75C10.5372 25.95 10.3336 26.0377 10.1837 26.1931C10.0339 26.3485 9.95 26.5588 9.95 26.7778V39.2222C9.95 39.4412 10.0339 39.6515 10.1837 39.8069C10.3336 39.9623 10.5372 40.05 10.75 40.05ZM20.5 32.0276L13.571 27.6056H27.429L20.5 32.0276Z" fill="#4F4F4F" stroke="#4F4F4F" stroke-width="0.1"/>
<path d="M33.7727 35.9389H35.2682V38.2222C35.2682 38.4417 35.3548 38.6522 35.509 38.8074C35.6633 38.9627 35.8726 39.05 36.0909 39.05H49.2273C49.4456 39.05 49.6549 38.9627 49.8091 38.8074C49.9634 38.6522 50.05 38.4417 50.05 38.2222V28.8889C50.05 28.6695 49.9634 28.4589 49.8091 28.3037C49.6549 28.1484 49.4456 28.0611 49.2273 28.0611H48.5045V25.7778C48.5045 25.5583 48.4179 25.3478 48.2637 25.1926C48.1094 25.0373 47.9001 24.95 47.6818 24.95H33.7727C33.5544 24.95 33.3451 25.0373 33.1909 25.1926C33.0366 25.3478 32.95 25.5583 32.95 25.7778V35.1111C32.95 35.3305 33.0366 35.5411 33.1909 35.6963C33.3451 35.8516 33.5544 35.9389 33.7727 35.9389ZM48.4045 37.3944H36.9136V29.7167H48.4045V37.3944ZM34.5955 26.6056H46.8591V28.0611H36.0909C35.8726 28.0611 35.6633 28.1484 35.509 28.3037C35.3548 28.4589 35.2682 28.6695 35.2682 28.8889V34.2833H34.5955V26.6056Z" fill="#4F4F4F" stroke="#4F4F4F" stroke-width="0.1"/>
<path d="M38 30.95H37.95V31V33V33.05H38H40H40.05V33V31V30.95H40H38Z" fill="#4F4F4F" stroke="#4F4F4F" stroke-width="0.1"/>
<path d="M42 30.95H41.95V31V33V33.05H42H47H47.05V33V31V30.95H47H42Z" fill="#4F4F4F" stroke="#4F4F4F" stroke-width="0.1"/>
<path d="M38 33.95H37.95V34V36V36.05H38H41H41.05V36V34V33.95H41H38Z" fill="#4F4F4F" stroke="#4F4F4F" stroke-width="0.1"/>
<path d="M43 33.95H42.95V34V36V36.05H43H47H47.05V36V34V33.95H47H43Z" fill="#4F4F4F" stroke="#4F4F4F" stroke-width="0.1"/>
<path d="M18.1075 18.9656L18.1075 18.9656C17.9855 19.0266 17.85 19.0553 17.7137 19.0492C17.5775 19.043 17.4451 19.0021 17.3292 18.9304L17.3555 18.8879L17.3292 18.9304C17.2132 18.8587 17.1175 18.7585 17.0511 18.6393C16.9847 18.5202 16.9499 18.3861 16.95 18.2497C16.95 18.2497 16.95 18.2497 16.95 18.2497L17 18.2497L18.1075 18.9656ZM18.1075 18.9656L22.6069 16.7159M18.1075 18.9656L22.6069 16.7159M22.6069 16.7159C22.74 16.6496 22.852 16.5474 22.9303 16.421M22.6069 16.7159L22.9303 16.421M22.9303 16.421C23.0085 16.2945 23.05 16.1487 23.05 16M22.9303 16.421L23.05 16M23.05 16C23.05 15.8513 23.0085 15.7055 22.9303 15.579M23.05 16L22.9303 15.579M22.9303 15.579C22.852 15.4526 22.74 15.3504 22.607 15.2841L22.9303 15.579ZM17.0511 13.3607C16.9847 13.4798 16.9499 13.6139 16.95 13.7503L22.6069 15.2841L18.1075 13.0344L18.1075 13.0344C17.9855 12.9734 17.8499 12.9446 17.7137 12.9508C17.5775 12.957 17.4451 12.9979 17.3291 13.0696C17.2132 13.1413 17.1174 13.2415 17.0511 13.3607ZM18.5498 15.0445L20.4608 16L18.5498 16.9555V15.0445Z" fill="#4F4F4F" stroke="#4F4F4F" stroke-width="0.1"/>
</svg>
