<svg width="60" height="60" viewBox="0 0 60 60" fill="none" xmlns="http://www.w3.org/2000/svg">
<path d="M45.3704 36.2646V36.5247L45.5835 36.674C48.0341 38.3912 49.5 41.2353 49.5 44.2896C49.5 49.3836 45.4595 53.5 40.4953 53.5C35.5412 53.5 31.5001 49.3842 31.5001 44.2798L31.5001 44.2774C31.491 42.3613 32.0733 40.4925 33.1542 38.9413L33.2439 38.8124V38.6554V24.0261C33.2439 23.786 33.4272 23.5953 33.7116 23.5953H37.4196C37.7071 23.5953 37.8969 23.7986 37.8969 24.0261V34.8144V35.4532L38.517 35.2997C39.0737 35.162 39.6517 35.0877 40.2334 35.0692L40.7174 35.0537V34.5694V18.9113C40.7174 18.7031 40.8955 18.5 41.2043 18.5H44.9123C45.2011 18.5 45.3704 18.685 45.3704 18.9113V36.2646ZM42.1337 19.4597H41.6337V19.9597V34.7164V35.1439L42.056 35.2103C42.6379 35.3019 43.2146 35.4673 43.7675 35.6898L44.4541 35.9661V35.2259V19.9597V19.4597H43.9541H42.1337ZM34.6602 24.555H34.1602V25.055V36.6075V37.6316L34.9677 37.0018C35.5024 36.5847 36.084 36.2313 36.6945 35.9424L36.9807 35.807V35.4905V25.055V24.555H36.4807H34.6602ZM47.4622 48.4796L47.4623 48.4795C49.7329 44.5643 48.4747 39.5095 44.6365 37.1803C43.5819 36.5315 42.3846 36.1444 41.1563 36.0502L41.1372 36.0487H41.1323C40.9247 36.0292 40.7244 36.0193 40.5144 36.0193C39.5742 36.0193 38.6323 36.1865 37.7496 36.5223L37.7059 36.539L37.666 36.5635C37.6013 36.6032 37.5572 36.6191 37.5273 36.6241L37.4703 36.6339L37.4171 36.6563C34.3906 37.932 32.426 40.9487 32.426 44.2798C32.426 48.8171 36.0307 52.5305 40.5048 52.5305C43.3598 52.5305 46.0044 50.9921 47.4622 48.4796Z" fill="#4F4F4F" stroke="#4F4F4F"/>
<path d="M39.9817 41.1152V41.1151L39.9739 41.1152C39.0176 41.1301 38.3314 41.9537 38.3314 42.887C38.3314 43.8235 39.0316 44.6488 39.9909 44.6488C40.9933 44.6488 41.9312 45.3183 42.3177 46.3905C42.8359 47.84 42.1674 49.4416 40.8894 49.988L40.5859 50.1178V50.4478V50.9986C40.5859 51.3139 40.3567 51.5 40.1657 51.5C39.9747 51.5 39.7455 51.3139 39.7455 50.9986V50.5479V50.1693L39.381 50.0666C38.3064 49.764 37.5088 48.6792 37.5002 47.3918V47.3834H37.5002L37.5001 47.3751C37.4949 47.0675 37.7101 46.892 37.902 46.892C38.093 46.892 38.3222 47.0781 38.3222 47.3934C38.3222 48.3145 39.0175 49.1552 39.9725 49.1552C40.9176 49.1552 41.6319 48.3353 41.6319 47.4034C41.6319 46.4823 40.9367 45.6416 39.9817 45.6416C38.878 45.6416 37.8737 44.8267 37.5887 43.5862L37.5887 43.5862L37.5878 43.5825C37.2281 42.0688 38.0777 40.5731 39.3902 40.2038L39.7547 40.1012V39.7225V39.0014C39.7547 38.6861 39.9839 38.5 40.1749 38.5C40.3659 38.5 40.5951 38.6861 40.5951 39.0014V39.8326V40.1629L40.8989 40.2925C41.8455 40.6963 42.4983 41.7121 42.5 42.8725C42.493 43.1963 42.2662 43.3784 42.0614 43.3784C41.8704 43.3784 41.6412 43.1923 41.6412 42.877C41.6412 41.9532 40.9434 41.1152 39.9817 41.1152Z" fill="#4F4F4F" stroke="#4F4F4F"/>
<path d="M20.9661 46.6751H21.4661V46.1751V32.9209V32.4209H20.9661H19.0339H18.5339V32.9209V46.1751V46.6751H19.0339H20.9661ZM18.0169 31.5H21.9831C22.2935 31.5 22.5 31.7349 22.5 31.9605V47.0395C22.5 47.2651 22.2935 47.5 21.9831 47.5H18.0169C17.7065 47.5 17.5 47.2651 17.5 47.0395V31.9605C17.5 31.7349 17.7065 31.5 18.0169 31.5Z" fill="#4F4F4F" stroke="#4F4F4F"/>
<path d="M28.9661 47.51H29.4661V47.01V30.99V30.49H28.9661H27.0339H26.5339V30.99V47.01V47.51H27.0339H28.9661ZM26.0169 29.5H29.9831C30.2766 29.5 30.5 29.7341 30.5 29.995V48.005C30.5 48.2659 30.2766 48.5 29.9831 48.5H26.0169C25.7234 48.5 25.5 48.2659 25.5 48.005V29.995C25.5 29.7341 25.7234 29.5 26.0169 29.5Z" fill="#4F4F4F" stroke="#4F4F4F"/>
<path d="M13.9661 46.6209H14.4661V46.1209V40.978V40.478H13.9661H12.0339H11.5339V40.978V46.1209V46.6209H12.0339H13.9661ZM11.0169 39.5H14.9831C15.2795 39.5 15.5 39.7342 15.5 39.989V47.011C15.5 47.2658 15.2795 47.5 14.9831 47.5H11.0169C10.7205 47.5 10.5 47.2658 10.5 47.011V39.989C10.5 39.7342 10.7205 39.5 11.0169 39.5Z" fill="#4F4F4F" stroke="#4F4F4F"/>
<path d="M39.3446 6.5097L39.3446 6.5096C39.0916 6.50504 38.8734 6.71365 38.8685 6.97776C38.8641 7.21945 39.0671 7.44 39.3394 7.44689H39.3395H39.3395H39.3396H39.3396H39.3396H39.3397H39.3397H39.3397H39.3398H39.3398H39.3399H39.3399H39.3399H39.34H39.34H39.34H39.3401H39.3401H39.3401H39.3402H39.3402H39.3402H39.3403H39.3403H39.3403H39.3404H39.3404H39.3404H39.3405H39.3405H39.3406H39.3406H39.3406H39.3407H39.3407H39.3407H39.3408H39.3408H39.3408H39.3409H39.3409H39.3409H39.341H39.341H39.341H39.341H39.3411H39.3411H39.3411H39.3412H39.3412H39.3412H39.3413H39.3413H39.3413H39.3414H39.3414H39.3414H39.3415H39.3415H39.3415H39.3416H39.3416H39.3416H39.3417H39.3417H39.3417H39.3417H39.3418H39.3418H39.3418H39.3419H39.3419H39.3419H39.342H39.342H39.342H39.3421H39.3421H39.3421H39.3421H39.3422H39.3422H39.3422H39.3423H39.3423H39.3423H39.3424H39.3424H39.3424H39.3424H39.3425H39.3425H39.3425H39.3426H39.3426H39.3426H39.3427H39.3427H39.3427H39.3427H39.3428H39.3428H39.3428H39.3429H39.3429H39.3429H39.3429H39.343H39.343H39.343H39.3431H39.3431H39.3431H39.3431H39.3432H39.3432H39.3432H39.3433H39.3433H39.3433H39.3433H39.3434H39.3434H39.3434H39.3435H39.3435H39.3435H39.3435H39.3436H39.3436H39.3436H39.3437H39.3437H39.3437H39.3438H39.3438H39.3438H39.3438H39.3439H39.3439H39.3439H39.344H39.344H39.344H39.344H39.3441H39.3441H39.3441H39.3442H39.3442H39.3442H39.3442H39.3443H39.3443H39.3443H39.3444H39.3444H39.3444H39.3444H39.3445H39.3445H39.3445H39.3446H39.3446H39.3446H39.3446H39.3447H39.3447H39.3447H39.3448H39.3448H39.3448H39.3448H39.3449H39.3449H39.3449H39.345H39.345H39.345H39.345H39.3451H39.3451H39.3451H39.3452H39.3452H39.3452H39.3453H39.3453H39.3453H39.3453H39.3454H39.3454H39.3454H39.3455H39.3455H39.3455H39.3455H39.3456H39.3456H39.3456H39.3457H39.3457H39.3457H39.3458H39.3458H39.3458H39.3458H39.3459H39.3459H39.3459H39.346H39.346H39.346H39.3461H39.3461H39.3461H39.3462H39.3462H39.3462H39.3463H39.3463H39.3463H39.3463H39.3464H39.3464H39.3464H39.3465H39.3465H39.3465H39.3466H39.3466H39.3466H39.3467H39.3467H39.3467H39.3468H39.3468H39.3468H39.3469H39.3469H39.3469H39.347H39.347H39.347H39.3471H39.3471H39.3471H39.3472H39.3472H39.3472H39.3473H39.3473H39.3473H39.3474H39.3474H39.3474H39.3475H39.3475H39.3475H39.3476H39.3476H39.3476H39.3477H39.3477H39.3477H39.3478H39.3478H39.3478H39.3479H39.3479H39.348H39.348H39.348H39.3481H39.3481H39.3481H39.3482H39.3482H39.3482H39.3483H39.3483H39.3484H39.3484H39.3484H39.3485H39.3485H39.3485H39.3486H39.3486H39.3487H39.3487H39.3487H39.3488H39.3488H39.3489H39.3489H39.3489H39.349H39.349H39.3491H39.3491H39.3491H39.3492H39.3492H39.3492H39.3493H39.3493H39.3494H39.3494H39.3495H39.3495H39.3495H39.3496H39.3496H39.3497H39.3497H39.3497H39.3498H39.3498H39.3499H39.3499H39.35H39.35H39.35H39.3501H39.3501H39.3502H39.3502H39.3503H39.3503H39.3503H39.3504H39.3504H39.3505H39.3505H39.3506H39.3506H39.3507H39.3507H39.3508H39.3508H39.3508H39.3509H39.3509H39.351H39.351H39.3511H39.3511H39.3512H39.3512H39.3513H39.3513H39.3514H39.3514H39.3515H39.3515H39.3516H39.3516H39.3517H39.3517H39.3518H39.3518H39.3519H39.3519H39.352H39.352H39.3521H39.3521H39.3522H39.3522H39.3523H39.3523H39.3524H39.3524H39.3525H39.3525H39.3526H39.3526H39.3527H39.3527H39.3528H39.3528H39.3529H39.353H39.353H39.3531H39.3531H39.3532H39.3532H39.3533H39.3533H39.3534H39.3534H39.3535H39.3536H39.3536H39.3537L43.6731 7.43721L44.8932 7.43447L44.0259 8.29263L33.4439 18.7632L33.093 19.1105L32.7413 18.764L29.0499 15.1269C28.9696 15.0532 28.8509 15.0088 28.7225 15.0137L28.7034 15.0144L28.6843 15.0137C28.5562 15.0088 28.4378 15.053 28.3575 15.1264L9.63761 33.7178C9.45153 33.9026 9.45827 34.1907 9.63297 34.3598L9.63764 34.3643L9.63761 34.3643C9.72545 34.4516 9.84097 34.5 9.97773 34.5C10.1145 34.5 10.23 34.4516 10.3179 34.3643L28.3609 16.4452L28.7146 16.0939L29.0669 16.4466L32.7633 20.1466L32.7719 20.1552L32.7801 20.1642C32.8519 20.2435 32.9657 20.2999 33.1015 20.3093C33.221 20.3003 33.3416 20.245 33.442 20.1454L39.3446 6.5097ZM39.3446 6.5097L39.3544 6.50969L46.0247 6.5C46.0248 6.5 46.0249 6.5 46.025 6.5C46.2818 6.50016 46.4997 6.71828 46.5 6.97776C46.5 6.97794 46.5 6.97811 46.5 6.97829L46.4902 13.6222V13.6229C46.4902 13.8926 46.2821 14.1087 46.0192 14.1202C45.7423 14.1038 45.5401 13.8854 45.5397 13.6237C45.5397 13.6235 45.5397 13.6232 45.5397 13.6229L45.5494 9.31376L45.5521 8.10793L44.6969 8.95801L33.4422 20.1452L39.3446 6.5097Z" fill="#4F4F4F" stroke="#4F4F4F"/>
</svg>
