<svg width="117" height="56" viewBox="0 0 117 56" fill="none" xmlns="http://www.w3.org/2000/svg">
<path d="M40.6104 36.0264H35.7363L34.6289 39H34.2256L37.9512 29.0469H38.4023L42.1279 39H41.7246L40.6104 36.0264ZM35.873 35.6572H40.4736L38.1768 29.4912L35.873 35.6572ZM47.5215 34.7412H44.0693V39H43.7002V29.0469H46.8721C47.8701 29.0469 48.6631 29.3044 49.251 29.8193C49.8434 30.3343 50.1396 31.0339 50.1396 31.918C50.1396 32.597 49.9277 33.1917 49.5039 33.7021C49.0846 34.208 48.5492 34.5225 47.8975 34.6455L50.5566 38.9043V39H50.167L47.5215 34.7412ZM44.0693 34.3721H47.207C47.9727 34.3721 48.5902 34.1396 49.0596 33.6748C49.5335 33.21 49.7705 32.6243 49.7705 31.918C49.7705 31.1432 49.5085 30.5326 48.9844 30.0859C48.4648 29.6393 47.7516 29.416 46.8447 29.416H44.0693V34.3721ZM58.9717 29.416H55.3486V39H54.9795V29.416H51.3564V29.0469H58.9717V29.416ZM61.3574 39H60.9883V29.0469H61.3574V39ZM70.3262 36.6143C70.3262 36.1904 70.2259 35.8327 70.0254 35.541C69.8294 35.2448 69.5173 34.985 69.0889 34.7617C68.665 34.5339 68.0225 34.3014 67.1611 34.0645C66.2998 33.8275 65.6527 33.5882 65.2197 33.3467C64.7913 33.1051 64.4769 32.8249 64.2764 32.5059C64.0758 32.1868 63.9756 31.7995 63.9756 31.3438C63.9756 30.6191 64.2809 30.0335 64.8916 29.5869C65.5023 29.1357 66.2975 28.9102 67.2773 28.9102C67.9154 28.9102 68.4873 29.0355 68.9932 29.2861C69.5036 29.5322 69.8978 29.8809 70.1758 30.332C70.4538 30.7786 70.5928 31.2845 70.5928 31.8496H70.2236C70.2236 31.1068 69.9502 30.4938 69.4033 30.0107C68.8564 29.5231 68.1478 29.2793 67.2773 29.2793C66.4023 29.2793 65.6937 29.4753 65.1514 29.8672C64.6136 30.2546 64.3447 30.7422 64.3447 31.3301C64.3447 31.9271 64.5794 32.4079 65.0488 32.7725C65.5182 33.137 66.293 33.4606 67.373 33.7432C68.4531 34.0212 69.2438 34.3447 69.7451 34.7139C70.3831 35.1833 70.7021 35.8122 70.7021 36.6006C70.7021 37.1019 70.5609 37.5462 70.2783 37.9336C69.9958 38.3164 69.5947 38.6126 69.0752 38.8223C68.5557 39.0319 67.9723 39.1367 67.3252 39.1367C66.6051 39.1367 65.958 39.0182 65.3838 38.7812C64.8096 38.5397 64.3766 38.1979 64.085 37.7559C63.7979 37.3138 63.6543 36.792 63.6543 36.1904H64.0234C64.0234 37.0062 64.3288 37.6396 64.9395 38.0908C65.5501 38.542 66.3454 38.7676 67.3252 38.7676C68.1956 38.7676 68.9134 38.5693 69.4785 38.1729C70.0436 37.7718 70.3262 37.2523 70.3262 36.6143ZM79.2744 29.416H75.6514V39H75.2822V29.416H71.6592V29.0469H79.2744V29.416Z" fill="#272727"/>
<path d="M10.666 48.4512H6.48828L5.53906 51H5.19336L8.38672 42.4688H8.77344L11.9668 51H11.6211L10.666 48.4512ZM6.60547 48.1348H10.5488L8.58008 42.8496L6.60547 48.1348ZM21.6146 44.8887L21.2045 44.8535C20.6654 44.8535 20.2142 45.0293 19.8509 45.3809C19.4877 45.7285 19.2494 46.2168 19.1361 46.8457V51H18.8197V44.6602H19.1361V45.9785C19.308 45.5371 19.5658 45.1875 19.9095 44.9297C20.2533 44.6719 20.6849 44.543 21.2045 44.543C21.388 44.543 21.5365 44.5645 21.6498 44.6074L21.6146 44.8887ZM29.4812 42.9492V44.6602H30.9226V44.9824H29.4812V49.4824C29.4812 49.9316 29.5534 50.2637 29.698 50.4785C29.8464 50.6934 30.0925 50.8008 30.4362 50.8008C30.6081 50.8008 30.8171 50.7832 31.0632 50.748L31.1159 51.0469C30.987 51.0938 30.7663 51.1172 30.4538 51.1172C29.9929 51.1172 29.6628 50.9902 29.4636 50.7363C29.2644 50.4785 29.1628 50.0742 29.1589 49.5234V44.9824H27.987V44.6602H29.1589V42.9492H29.4812ZM40.3126 47.2559H37.5587V46.9395H40.3126V47.2559ZM51.9467 51H51.6303V46.7402C51.6264 46.1035 51.4858 45.6309 51.2084 45.3223C50.935 45.0098 50.4975 44.8535 49.8959 44.8535C49.2006 44.8535 48.6323 45.1602 48.1909 45.7734C47.9291 46.1406 47.7553 46.5469 47.6694 46.9922V51H47.3471V44.6602H47.6694V46.1602C47.8842 45.6445 48.1909 45.2461 48.5893 44.9648C48.9877 44.6836 49.4291 44.543 49.9135 44.543C50.4448 44.543 50.8784 44.6602 51.2143 44.8945C51.5541 45.1289 51.7768 45.5117 51.8823 46.043C52.0698 45.5859 52.3745 45.2227 52.7963 44.9531C53.2182 44.6797 53.6909 44.543 54.2143 44.543C54.8979 44.543 55.4057 44.7363 55.7377 45.123C56.0737 45.5098 56.2436 46.0898 56.2475 46.8633V51H55.9311V46.8867C55.9311 46.1914 55.7905 45.6777 55.5092 45.3457C55.2319 45.0098 54.7944 44.8457 54.1967 44.8535C53.4272 44.8652 52.8178 45.1719 52.3686 45.7734C52.1108 46.1211 51.9702 46.457 51.9467 46.7812V51ZM67.9051 51C67.827 50.7305 67.7879 50.3438 67.7879 49.8398C67.5379 50.2461 67.1961 50.5605 66.7625 50.7832C66.3289 51.0059 65.8387 51.1172 65.2918 51.1172C64.7059 51.1172 64.2332 50.959 63.8738 50.6426C63.5184 50.3223 63.3406 49.9062 63.3406 49.3945C63.3406 48.8125 63.6023 48.3477 64.1258 48C64.6531 47.6484 65.3523 47.4688 66.2234 47.4609H67.7879V46.5352C67.7879 46.0039 67.6199 45.5918 67.284 45.2988C66.952 45.0059 66.4754 44.8594 65.8543 44.8594C65.2762 44.8594 64.7938 45.0078 64.407 45.3047C64.0203 45.6016 63.827 45.9688 63.827 46.4062L63.5105 46.3945C63.5105 45.8789 63.7371 45.4414 64.1902 45.082C64.6434 44.7227 65.198 44.543 65.8543 44.543C66.5379 44.543 67.0809 44.7148 67.4832 45.0586C67.8855 45.3984 68.0926 45.8789 68.1043 46.5V49.5293C68.1043 50.2246 68.159 50.6973 68.2684 50.9473V51H67.9051ZM65.2918 50.8066C65.8855 50.8066 66.3953 50.6738 66.8211 50.4082C67.2508 50.1426 67.573 49.7695 67.7879 49.2891V47.7832H66.323C65.4168 47.7832 64.7234 47.9629 64.243 48.3223C63.8523 48.6152 63.657 48.9805 63.657 49.418C63.657 49.8047 63.8113 50.1328 64.1199 50.4023C64.4285 50.6719 64.8191 50.8066 65.2918 50.8066ZM78.5841 44.8887L78.174 44.8535C77.6349 44.8535 77.1837 45.0293 76.8205 45.3809C76.4572 45.7285 76.2189 46.2168 76.1056 46.8457V51H75.7892V44.6602H76.1056V45.9785C76.2775 45.5371 76.5353 45.1875 76.8791 44.9297C77.2228 44.6719 77.6544 44.543 78.174 44.543C78.3576 44.543 78.506 44.5645 78.6193 44.6074L78.5841 44.8887ZM86.6968 47.5723L86.6851 47.584L85.7652 48.375V51H85.4487V42H85.7652V48.0293L86.5093 47.3262L89.3921 44.6602H89.8433L86.9312 47.3613L90.0249 51H89.6148L86.6968 47.5723ZM98.9344 51.1172C98.4227 51.1172 97.952 50.9805 97.5223 50.707C97.0966 50.4297 96.7626 50.0508 96.5204 49.5703C96.2782 49.0898 96.1571 48.5566 96.1571 47.9707V47.707C96.1571 47.1211 96.2743 46.584 96.5087 46.0957C96.743 45.6074 97.0653 45.2266 97.4755 44.9531C97.8856 44.6797 98.3329 44.543 98.8173 44.543C99.5243 44.543 100.102 44.7949 100.552 45.2988C101.001 45.8027 101.225 46.4648 101.225 47.2852V47.6191H96.4735V47.9648C96.4735 48.4805 96.5809 48.959 96.7958 49.4004C97.0145 49.8379 97.3134 50.1816 97.6923 50.4316C98.0751 50.6816 98.4891 50.8066 98.9344 50.8066C99.3602 50.8066 99.7216 50.7363 100.018 50.5957C100.319 50.4512 100.585 50.2305 100.815 49.9336L101.038 50.0918C100.565 50.7754 99.8641 51.1172 98.9344 51.1172ZM98.8173 44.8594C98.2001 44.8594 97.6766 45.0898 97.2469 45.5508C96.8173 46.0078 96.5653 46.5918 96.4911 47.3027H100.909V47.2266C100.909 46.7969 100.817 46.3984 100.634 46.0312C100.454 45.6602 100.204 45.373 99.8837 45.1699C99.5673 44.9629 99.2118 44.8594 98.8173 44.8594ZM109.051 42.9492V44.6602H110.492V44.9824H109.051V49.4824C109.051 49.9316 109.123 50.2637 109.268 50.4785C109.416 50.6934 109.662 50.8008 110.006 50.8008C110.178 50.8008 110.387 50.7832 110.633 50.748L110.686 51.0469C110.557 51.0938 110.336 51.1172 110.024 51.1172C109.563 51.1172 109.233 50.9902 109.033 50.7363C108.834 50.4785 108.733 50.0742 108.729 49.5234V44.9824H107.557V44.6602H108.729V42.9492H109.051Z" fill="#272727"/>
<path d="M7.13672 14.9453L13.1133 4.9375H13.8867L7.45312 15.5195V22H6.82031V15.5195L0.386719 4.9375H1.23047L7.13672 14.9453ZM24.5742 16.9023H16.2188L14.3203 22H13.6289L20.0156 4.9375H20.7891L27.1758 22H26.4844L24.5742 16.9023ZM16.4531 16.2695H24.3398L20.4023 5.69922L16.4531 16.2695ZM33.3867 20.3359L33.7266 21.3672L34.0664 20.3359L39.7969 4.9375H40.4883L34.1133 22H33.3398L26.9648 4.9375H27.6562L33.3867 20.3359ZM55.1602 14.7461C55.1602 16.2227 54.8945 17.5312 54.3633 18.6719C53.8398 19.8047 53.0898 20.6836 52.1133 21.3086C51.1367 21.9258 50.0117 22.2344 48.7383 22.2344C46.8164 22.2344 45.2617 21.5508 44.0742 20.1836C42.8867 18.8164 42.293 16.9727 42.293 14.6523V12.1914C42.293 10.7227 42.5547 9.41797 43.0781 8.27734C43.6094 7.13672 44.3633 6.25781 45.3398 5.64062C46.3242 5.01563 47.4492 4.70312 48.7148 4.70312C49.9883 4.70312 51.1133 5.01563 52.0898 5.64062C53.0742 6.25781 53.832 7.14062 54.3633 8.28906C54.8945 9.42969 55.1602 10.7305 55.1602 12.1914V14.7461ZM54.5273 12.168C54.5273 10.1055 54.0039 8.45312 52.957 7.21094C51.9102 5.96094 50.4961 5.33594 48.7148 5.33594C46.957 5.33594 45.5547 5.95703 44.5078 7.19922C43.4609 8.43359 42.9375 10.1172 42.9375 12.25V14.7461C42.9375 16.1055 43.1719 17.3086 43.6406 18.3555C44.1172 19.3945 44.793 20.1953 45.668 20.7578C46.543 21.3203 47.5664 21.6016 48.7383 21.6016C50.5195 21.6016 51.9297 20.9805 52.9688 19.7383C54.0078 18.4961 54.5273 16.8008 54.5273 14.6523V12.168ZM65.5547 14.6992H59.6367V22H59.0039V4.9375H64.4414C66.1523 4.9375 67.5117 5.37891 68.5195 6.26172C69.5352 7.14453 70.043 8.34375 70.043 9.85938C70.043 11.0234 69.6797 12.043 68.9531 12.918C68.2344 13.7852 67.3164 14.3242 66.1992 14.5352L70.7578 21.8359V22H70.0898L65.5547 14.6992ZM59.6367 14.0664H65.0156C66.3281 14.0664 67.3867 13.668 68.1914 12.8711C69.0039 12.0742 69.4102 11.0703 69.4102 9.85938C69.4102 8.53125 68.9609 7.48437 68.0625 6.71875C67.1719 5.95313 65.9492 5.57031 64.3945 5.57031H59.6367V14.0664ZM84.9844 17.9102C84.9844 17.1836 84.8125 16.5703 84.4688 16.0703C84.1328 15.5625 83.5977 15.1172 82.8633 14.7344C82.1367 14.3438 81.0352 13.9453 79.5586 13.5391C78.082 13.1328 76.9727 12.7227 76.2305 12.3086C75.4961 11.8945 74.957 11.4141 74.6133 10.8672C74.2695 10.3203 74.0977 9.65625 74.0977 8.875C74.0977 7.63281 74.6211 6.62891 75.668 5.86328C76.7148 5.08984 78.0781 4.70312 79.7578 4.70312C80.8516 4.70312 81.832 4.91797 82.6992 5.34766C83.5742 5.76953 84.25 6.36719 84.7266 7.14062C85.2031 7.90625 85.4414 8.77344 85.4414 9.74219H84.8086C84.8086 8.46875 84.3398 7.41797 83.4023 6.58984C82.4648 5.75391 81.25 5.33594 79.7578 5.33594C78.2578 5.33594 77.043 5.67188 76.1133 6.34375C75.1914 7.00781 74.7305 7.84375 74.7305 8.85156C74.7305 9.875 75.1328 10.6992 75.9375 11.3242C76.7422 11.9492 78.0703 12.5039 79.9219 12.9883C81.7734 13.4648 83.1289 14.0195 83.9883 14.6523C85.082 15.457 85.6289 16.5352 85.6289 17.8867C85.6289 18.7461 85.3867 19.5078 84.9023 20.1719C84.418 20.8281 83.7305 21.3359 82.8398 21.6953C81.9492 22.0547 80.9492 22.2344 79.8398 22.2344C78.6055 22.2344 77.4961 22.0312 76.5117 21.625C75.5273 21.2109 74.7852 20.625 74.2852 19.8672C73.793 19.1094 73.5469 18.2148 73.5469 17.1836H74.1797C74.1797 18.582 74.7031 19.668 75.75 20.4414C76.7969 21.2148 78.1602 21.6016 79.8398 21.6016C81.332 21.6016 82.5625 21.2617 83.5312 20.582C84.5 19.8945 84.9844 19.0039 84.9844 17.9102ZM92.332 13.0234L89.6016 15.543V22H88.9688V4.9375H89.6016V14.8047L92.4141 12.0508L99.4922 4.9375H100.406L92.8008 12.5898L100.992 22H100.172L92.332 13.0234ZM113.191 16.9023H104.836L102.938 22H102.246L108.633 4.9375H109.406L115.793 22H115.102L113.191 16.9023ZM105.07 16.2695H112.957L109.02 5.69922L105.07 16.2695Z" fill="#272727"/>
<line y1="32.5" x2="22" y2="32.5" stroke="#272727"/>
<line x1="95" y1="32.5" x2="117" y2="32.5" stroke="#272727"/>
<line x1="-4.37114e-08" y1="55.5" x2="117" y2="55.5" stroke="#272727"/>
</svg>
