<svg width="155" height="25" viewBox="0 0 155 25" fill="none" xmlns="http://www.w3.org/2000/svg">
<g clip-path="url(#clip0)">
<path d="M142.669 5.55474L142.836 5.24703L142.669 5.55474L148.549 8.74188C148.686 8.81603 148.839 8.85576 148.995 8.85764L154.387 8.92259C154.528 8.92428 154.642 9.03881 154.643 9.17997L154.709 22.4612C154.71 22.6055 154.592 22.7225 154.448 22.7211L143.223 22.6167C143.201 22.6164 143.179 22.6135 143.158 22.6077L143.067 22.9456L143.158 22.6077L131.763 19.532C131.65 19.5016 131.572 19.3992 131.572 19.2823V5.50617C131.572 5.36069 131.692 5.24381 131.837 5.24756L142.552 5.52357C142.593 5.52462 142.633 5.5353 142.669 5.55474Z" stroke="#303030" stroke-width="0.7"/>
<mask id="path-2-inside-1" fill="white">
<rect x="140.569" y="3.03271" width="11.9565" height="13.0917" rx="0.608696"/>
</mask>
<rect x="140.569" y="3.03271" width="11.9565" height="13.0917" rx="0.608696" fill="white" stroke="#303030" stroke-width="1.6" mask="url(#path-2-inside-1)"/>
<rect x="142.164" y="4.58594" width="8.91304" height="0.887574" rx="0.443787" stroke="#303030" stroke-width="0.4"/>
<rect x="142.091" y="6.47363" width="8.91304" height="0.887574" rx="0.443787" stroke="#303030" stroke-width="0.4"/>
<rect x="142.164" y="8.36133" width="8.91304" height="0.887574" rx="0.443787" stroke="#303030" stroke-width="0.4"/>
<mask id="path-6-inside-2" fill="white">
<rect x="132.381" width="11.9565" height="13.0917" rx="0.608696"/>
</mask>
<rect x="132.381" width="11.9565" height="13.0917" rx="0.608696" fill="white" stroke="#303030" stroke-width="1.6" mask="url(#path-6-inside-2)"/>
<rect x="133.975" y="1.70093" width="8.91304" height="0.887574" rx="0.443787" stroke="#303030" stroke-width="0.4"/>
<rect x="133.903" y="3.58862" width="8.91304" height="0.887574" rx="0.443787" stroke="#303030" stroke-width="0.4"/>
<rect x="133.975" y="5.47632" width="8.91304" height="0.887574" rx="0.443787" stroke="#303030" stroke-width="0.4"/>
<path d="M130.412 7.93145C130.412 7.78858 130.528 7.67275 130.671 7.67275H135.852C135.923 7.67275 135.99 7.70184 136.039 7.75322L136.292 7.51332L136.039 7.75322L138.632 10.4811L138.886 10.2399L138.632 10.4811C138.813 10.6715 139.064 10.7793 139.327 10.7793H146.412H153.149C153.292 10.7793 153.408 10.8951 153.408 11.038V24.3916C153.408 24.5344 153.292 24.6503 153.149 24.6503H130.671C130.528 24.6503 130.412 24.5344 130.412 24.3916V7.93145Z" fill="white" stroke="#303030" stroke-width="0.7"/>
</g>
<path d="M39.456 6.8V18H38.32V9.04L33.92 16.576H33.36L28.96 9.088V18H27.824V6.8H28.8L33.664 15.104L38.48 6.8H39.456ZM51.0253 16.976V18H43.1053V6.8H50.7853V7.824H44.2893V11.808H50.0813V12.816H44.2893V16.976H51.0253ZM53.8084 6.8H58.3684C59.5524 6.8 60.5977 7.04 61.5044 7.52C62.411 7.98933 63.115 8.65067 63.6164 9.504C64.1177 10.3467 64.3684 11.312 64.3684 12.4C64.3684 13.488 64.1177 14.4587 63.6164 15.312C63.115 16.1547 62.411 16.816 61.5044 17.296C60.5977 17.7653 59.5524 18 58.3684 18H53.8084V6.8ZM58.3044 16.976C59.2857 16.976 60.1444 16.784 60.8804 16.4C61.6164 16.0053 62.187 15.4667 62.5924 14.784C62.9977 14.0907 63.2004 13.296 63.2004 12.4C63.2004 11.504 62.9977 10.7147 62.5924 10.032C62.187 9.33867 61.6164 8.8 60.8804 8.416C60.1444 8.02133 59.2857 7.824 58.3044 7.824H54.9924V16.976H58.3044ZM67.0271 6.8H68.2111V18H67.0271V6.8ZM78.8793 15.008H72.6393L71.2953 18H70.0633L75.1833 6.8H76.3513L81.4713 18H80.2233L78.8793 15.008ZM78.4473 14.048L75.7593 8.032L73.0713 14.048H78.4473ZM90.9835 12.736L88.6955 15.056V18H87.5115V6.8H88.6955V13.568L95.2715 6.8H96.6315L91.7835 11.872L96.9675 18H95.5595L90.9835 12.736ZM98.8865 6.8H100.071V18H98.8865V6.8ZM105.891 7.824H101.955V6.8H111.011V7.824H107.075V18H105.891V7.824Z" fill="black"/>
<path d="M6.79321 6.84842C7.1077 5.88326 7.48558 4.94367 8.10238 4.11107C8.41444 3.6878 8.73136 3.40638 9.02635 3.24824C9.66021 2.88543 10.2039 2.93893 10.7329 3.28778C11.1693 3.57384 11.4838 3.96456 11.7593 4.38783C12.2615 5.15996 12.5809 6.00651 12.8515 6.874C12.8807 6.96703 12.8588 7.01122 12.7588 7.03913C11.8373 7.28798 10.9426 7.60892 10.0698 7.98103C9.86744 8.06708 9.7236 8.04615 9.54076 7.96475C8.69236 7.58799 7.81958 7.26704 6.9273 6.99958C6.85416 6.97865 6.74689 6.98796 6.79321 6.84842ZM6.07889 16.0163C6.07646 16.007 6.08621 15.9954 6.09352 15.9675C6.97849 16.5303 7.89028 17.0396 8.85082 17.514C8.63872 17.6396 8.41931 17.7024 8.20965 17.7792C7.69037 17.9745 7.16134 18.1466 6.62743 18.2978C6.54454 18.3211 6.48847 18.3397 6.46165 18.2234C6.29587 17.4931 6.1691 16.7582 6.07889 16.0163ZM5.67664 18.5397C4.60882 18.7629 3.53857 18.9188 2.4415 18.8002C2.03193 18.756 1.63455 18.6653 1.26886 18.4792C1.01531 18.349 0.80321 18.1769 0.654496 17.9397C0.425331 17.5303 0.442398 17.1024 0.55698 16.6721C0.752015 15.9396 1.16159 15.3093 1.62236 14.7069C1.93929 14.2953 2.29279 13.9139 2.66092 13.5418C2.73649 13.4673 2.78281 13.4441 2.87302 13.5301C3.59464 14.1953 4.36747 14.8 5.18174 15.3558C5.25975 15.4093 5.28901 15.4674 5.29876 15.5581C5.38653 16.5094 5.5328 17.4536 5.75708 18.3862C5.77415 18.4583 5.79122 18.5141 5.67664 18.5397ZM12.7564 19.1397C12.4419 20.1049 12.0689 21.0421 11.4521 21.8747C11.2181 22.191 10.945 22.4701 10.6159 22.7003C10.0747 23.0771 9.45056 23.1027 8.8874 22.7538C8.3608 22.4259 8.0073 21.9538 7.69524 21.4491C7.68062 21.4259 7.66599 21.4003 7.65136 21.377C7.23448 20.6607 6.94192 19.9002 6.703 19.1165C6.67619 19.0304 6.69569 19.0025 6.78102 18.9792C7.76838 18.7048 8.72649 18.3606 9.66266 17.9559C9.72604 17.928 9.76993 17.9443 9.82356 17.9676C10.7524 18.3746 11.6983 18.7397 12.6759 19.0211C12.7393 19.0374 12.7856 19.0513 12.7564 19.1397ZM13.0026 18.2676C12.9831 18.3443 12.9709 18.3862 12.871 18.3559C12.1274 18.1304 11.3985 17.8699 10.6841 17.5722C10.6646 17.5652 10.65 17.5466 10.6208 17.5233C11.5789 17.0582 12.5028 16.5652 13.4366 15.9954C13.3927 16.2744 13.3586 16.5186 13.3196 16.7605C13.2318 17.2675 13.1294 17.7699 13.0026 18.2676ZM18.9317 16.807C19.1779 17.8466 18.7586 18.5211 17.681 18.8025C16.8936 19.0095 16.0964 18.9723 15.2967 18.8769C14.7872 18.8164 14.285 18.7118 13.7852 18.6001C13.7047 18.5815 13.6755 18.556 13.6974 18.4699C13.9437 17.528 14.1046 16.5721 14.2118 15.6093C14.2192 15.5326 14.246 15.4814 14.3142 15.4349C15.1382 14.886 15.9257 14.2976 16.6595 13.6418C16.74 13.5697 16.7936 13.558 16.8741 13.6441C17.4372 14.2371 17.9687 14.8511 18.427 15.6279C18.6245 15.9419 18.8244 16.3559 18.9317 16.807Z" fill="black"/>
<path d="M16.4079 7.77047C15.7034 7.51349 14.9773 7.51586 14.2463 7.58963C13.7396 7.64197 13.2402 7.74192 12.7481 7.87517C12.7095 7.88468 12.6829 7.88944 12.6612 7.88468C12.4851 7.93941 12.309 7.99413 12.1377 8.06076C12.1039 8.07503 12.0702 8.0798 12.0412 8.0798C12.0171 8.09407 11.9833 8.09883 11.9544 8.10597C11.2547 8.3344 10.5696 8.60327 9.90611 8.91974C9.84821 8.9483 9.79513 8.96734 9.73964 8.97448C9.68657 8.96496 9.63349 8.94592 9.57318 8.91974C8.90973 8.60327 8.22457 8.3344 7.52493 8.10597C7.49839 8.09645 7.4622 8.09407 7.43808 8.0798C7.40913 8.0798 7.37535 8.07265 7.34158 8.06076C7.17029 7.99413 6.99417 7.93941 6.81805 7.88468C6.79634 7.88944 6.7698 7.88468 6.7312 7.87517C6.23904 7.74429 5.73965 7.64197 5.23302 7.58963C4.50202 7.51348 3.77584 7.51349 3.07137 7.77047C2.31625 8.04411 1.87235 8.6937 1.9013 9.48606C1.93025 10.2713 2.32108 10.9732 2.75051 11.6133C3.23543 12.3391 3.8072 13.022 4.47065 13.5978C5.83133 14.7804 7.25955 15.8226 8.847 16.6935C9.01588 16.7863 9.192 16.8743 9.37052 16.9457C9.38741 16.9529 9.65761 17.0528 9.73723 17.0909C9.81684 17.0528 10.0871 16.9529 10.1039 16.9457C10.2849 16.8743 10.4586 16.7863 10.6275 16.6935C12.2173 15.8202 13.6431 14.7804 15.0038 13.5978C15.6648 13.022 16.239 12.3391 16.7239 11.6133C17.151 10.9709 17.5418 10.2713 17.5732 9.48606C17.6069 8.6937 17.163 8.04411 16.4079 7.77047Z" fill="#ED3E36"/>
<path d="M0.262497 9.11559C0.216079 8.08748 0.963912 7.04924 1.9 6.63647C1.59313 6.66433 1.28884 6.72258 1.0026 6.83147C0.350173 7.0771 -0.031484 7.64179 0.00203977 8.32804C0.0200911 8.69522 0.128398 9.03708 0.283123 9.36375C0.272808 9.28271 0.265075 9.19915 0.262497 9.11559Z" fill="black"/>
<path d="M18.7375 9.11559C18.784 8.08748 18.0361 7.04924 17.1 6.63647C17.4069 6.66433 17.7112 6.72258 17.9974 6.83147C18.6499 7.0771 19.0315 7.64179 18.998 8.32804C18.9799 8.69522 18.8716 9.03708 18.7169 9.36375C18.7272 9.28271 18.735 9.19915 18.7375 9.11559Z" fill="black"/>
<defs>
<clipPath id="clip0">
<rect width="25" height="25" fill="white" transform="translate(130)"/>
</clipPath>
</defs>
</svg>
