<svg width="838" height="829" viewBox="0 0 838 829" fill="none" xmlns="http://www.w3.org/2000/svg">
<path d="M383.229 121.107L294.785 155.318L212.452 216.514L154.991 302.243L128.67 399.107L154.697 479.222L209.029 551.803L283.585 624.129L364.039 678.826L455.895 702.093L548.25 664.656" stroke="#E9E9E9"/>
<path d="M153.703 302.739L132.165 338.81L127.392 399.677L134.037 489.859L167.471 566.245" stroke="#E9E9E9"/>
<path d="M153.703 302.739L163.798 374.439L208.51 460.485L280.746 544.336L373.116 614.416L468.534 655.599L548.241 663.122" stroke="#E9E9E9"/>
<path d="M567.553 158.182L665.306 251.634" stroke="#E9E9E9"/>
<path d="M382.557 121.166L464.068 138.969L544.711 184.702L620.582 255.177L679.741 329.558L712.102 415.948" stroke="#E9E9E9"/>
<path d="M238.863 177.666L294.909 154.347L361.482 159.568L452.437 193.021L541.074 257.687L618.638 342.777L668.891 431.899L685.353 511.341L628.794 597.568L548.524 663.671L528.484 685.106L455.783 700.862L365.467 701.362L286.88 669.356L218.978 628.32L168.055 565.497" stroke="#E9E9E9"/>
<path d="M166.061 566.361L208.879 551.277L280.195 545.459L387.194 517.15L494.881 477.364L593.642 448.096L669.022 432.157L712.75 415.186" stroke="#E9E9E9"/>
<path d="M712.102 415.948L684.416 511.388L671.49 561.168" stroke="#E9E9E9"/>
<path d="M132.934 491.031L153.657 479.296L208.518 460.936L296.051 432.56L408.541 399.698L523.533 367.449L617.958 343.412L679.711 329.391L699.933 326.926L716.875 413.771L706.303 493.874L705.558 494.752" stroke="#E9E9E9"/>
<path d="M213.046 215.814L206.786 282.169L231.717 356.059L296.851 432.429L387.999 517.316L475.634 579.636L559.872 606.93L629.015 598.314L663.359 576.93L670.037 566.835L706.858 494.127L685.506 512.165L626.45 528.338L557.597 534.69" stroke="#E9E9E9"/>
<path d="M128.9 398.42L164.5 374.313L231.644 355.854L326.336 324.561L431.721 284.236" stroke="#E9E9E9"/>
<path d="M431.31 283.888L523.938 367.025L595.068 447.008L626.983 526.908L628.75 597.822L603.693 641.054L548.439 663.968L559.237 606.735L558.08 533.321L495.45 477.151L408.97 399.232L326.004 324.294L269.233 271.699" stroke="#E9E9E9"/>
<path d="M384.809 118.513L361.686 160.153L350.889 227.971L326.869 323.813L296.543 432.417L281.208 544.685L283.696 625.287L286.457 676.405" stroke="#E9E9E9"/>
<path d="M269.996 206.663L300.782 141.636L238.988 176.937L169.785 251.335L153.555 302.613L205.916 281.999L268.988 271.987L269.996 206.663Z" stroke="#E9E9E9"/>
<path d="M201.334 217.251L270.518 206.208L349.736 226.677L431.14 283.694L540.814 257.605L666.068 252.281" stroke="#E9E9E9"/>
<path d="M472.358 121.988L464.058 138.896L452.254 193.787L431.16 284.57L408.835 399.968L388.267 516.858L373.596 616.109L364.087 678.986L365.224 702.593" stroke="#E9E9E9"/>
<path d="M547.428 146.35L544.756 184.044L541.817 256.943L523.992 366.969L495.554 477.036L475.434 579.082L469.52 655.488L455.477 704.428" stroke="#E9E9E9"/>
<path d="M643.007 603.23C537.586 727.449 351.255 742.545 226.824 636.945C102.392 531.345 86.9828 345.039 192.403 220.82C297.824 96.6 484.155 81.504 608.587 187.104C733.018 292.704 748.427 479.01 643.007 603.23Z" stroke="#E9E9E9"/>
<path d="M464.257 138.689L567.111 158.075L621.351 192.035L666.371 252.876L680.012 329.337L668.952 433.124L626.879 527.188L559.135 607.012L469.254 655.977L364.125 678.421L286.674 670.031L222.586 615.643L167.889 566.205L154.936 478.256L163.629 375.479L206.58 282.16L270.602 206.722L361.494 160.124L464.257 138.689Z" stroke="#E9E9E9"/>
<path d="M544.516 183.886L620.764 191.536L620.51 254.419L618.065 344.455L596.068 445.078L557.531 533.175L474.722 579.169L373.884 614.393L283.541 623.633L224.247 617.052L208.656 551.181L209.346 459.656L231.823 354.91L269.135 271.814L351.199 226.697L453.047 193.841L544.516 183.886Z" stroke="#E9E9E9"/>
</svg>
