<svg width="746" height="718" viewBox="0 0 746 718" fill="none" xmlns="http://www.w3.org/2000/svg">
<g opacity="0.9806">
<circle cx="359" cy="134" r="3" fill="#ED3E36"/>
<circle cx="243.5" cy="211.5" r="3.5" fill="#ED3E36"/>
<circle cx="616.5" cy="272.5" r="2.5" fill="#ED3E36"/>
<circle cx="400.5" cy="570.5" r="2.5" fill="#ED3E36"/>
<circle cx="279.5" cy="684.5" r="3.5" fill="#ED3E36"/>
<circle cx="210.5" cy="512.5" r="3.5" fill="#ED3E36"/>
<circle cx="154" cy="316" r="3" fill="#ED3E36"/>
<circle cx="110" cy="332" r="3" fill="#ED3E36"/>
<circle cx="113.5" cy="444.5" r="3.5" fill="#ED3E36"/>
<circle cx="51.5" cy="553.5" r="3.5" fill="#ED3E36"/>
<circle cx="97.5" cy="571.5" r="3.5" fill="#ED3E36"/>
<circle cx="65.5" cy="571.5" r="3.5" fill="#ED3E36"/>
<circle cx="146.5" cy="578.5" r="3.5" fill="#ED3E36"/>
<circle cx="162.5" cy="652.5" r="3.5" fill="#ED3E36"/>
<circle cx="238.5" cy="650.5" r="3.5" fill="#ED3E36"/>
<circle cx="3.5" cy="337.5" r="3.5" fill="#ED3E36"/>
<circle cx="47.5" cy="325.5" r="3.5" fill="#ED3E36"/>
<circle cx="44.5" cy="277.5" r="3.5" fill="#ED3E36"/>
<circle cx="93.5" cy="212.5" r="3.5" fill="#ED3E36"/>
<circle cx="74.5" cy="245.5" r="3.5" fill="#ED3E36"/>
<circle cx="93.5" cy="157.5" r="3.5" fill="#ED3E36"/>
<circle cx="146.5" cy="88.5" r="3.5" fill="#ED3E36"/>
<circle cx="208.5" cy="93.5" r="3.5" fill="#ED3E36"/>
<circle cx="210.5" cy="77.5" r="3.5" fill="#ED3E36"/>
<circle cx="289.5" cy="56.5" r="3.5" fill="#ED3E36"/>
<circle cx="265.5" cy="3.5" r="3.5" fill="#ED3E36"/>
<circle cx="259.5" cy="33.5" r="3.5" fill="#ED3E36"/>
<circle cx="242.5" cy="3.5" r="3.5" fill="#ED3E36"/>
<circle cx="180.5" cy="40.5" r="3.5" fill="#ED3E36"/>
<circle cx="196.5" cy="19.5" r="3.5" fill="#ED3E36"/>
<circle cx="134.5" cy="26.5" r="3.5" fill="#ED3E36"/>
<circle cx="164.5" cy="77.5" r="3.5" fill="#ED3E36"/>
<circle cx="180.5" cy="97.5" r="3.5" fill="#ED3E36"/>
<circle cx="372.5" cy="35.5" r="2.5" fill="#ED3E36"/>
<circle cx="546.5" cy="173.5" r="2.5" fill="#ED3E36"/>
<circle cx="516.5" cy="77.5" r="3.5" fill="#ED3E36"/>
<circle cx="567.5" cy="70.5" r="3.5" fill="#ED3E36"/>
<circle cx="622.5" cy="42.5" r="3.5" fill="#ED3E36"/>
<circle cx="650.5" cy="113.5" r="3.5" fill="#ED3E36"/>
<circle cx="615.5" cy="134.5" r="3.5" fill="#ED3E36"/>
<circle cx="622.5" cy="176.5" r="3.5" fill="#ED3E36"/>
<circle cx="650.5" cy="180.5" r="3.5" fill="#ED3E36"/>
<circle cx="703.5" cy="187.5" r="3.5" fill="#ED3E36"/>
<circle cx="640.5" cy="231.5" r="3.5" fill="#ED3E36"/>
<circle cx="618.5" cy="343.5" r="2.5" fill="#ED3E36"/>
<circle cx="634.5" cy="314.5" r="3.5" fill="#ED3E36"/>
<circle cx="685.5" cy="309.5" r="3.5" fill="#ED3E36"/>
<circle cx="703.5" cy="284.5" r="3.5" fill="#ED3E36"/>
<circle cx="708.5" cy="235.5" r="3.5" fill="#ED3E36"/>
<circle cx="696.5" cy="252.5" r="3.5" fill="#ED3E36"/>
<circle cx="685.5" cy="219.5" r="3.5" fill="#ED3E36"/>
<circle cx="641" cy="202" r="3" fill="#ED3E36"/>
<circle cx="742.5" cy="344.5" r="3.5" fill="#ED3E36"/>
<circle cx="701.5" cy="302.5" r="3.5" fill="#ED3E36"/>
<circle cx="708.5" cy="422.5" r="3.5" fill="#ED3E36"/>
<circle cx="691.5" cy="443.5" r="3.5" fill="#ED3E36"/>
<circle cx="705.5" cy="470.5" r="3.5" fill="#ED3E36"/>
<circle cx="678.5" cy="500.5" r="3.5" fill="#ED3E36"/>
<circle cx="662.5" cy="539.5" r="3.5" fill="#ED3E36"/>
<circle cx="678.5" cy="601.5" r="3.5" fill="#ED3E36"/>
<circle cx="634.5" cy="574.5" r="3.5" fill="#ED3E36"/>
<circle cx="595.5" cy="597.5" r="3.5" fill="#ED3E36"/>
<circle cx="546.5" cy="657.5" r="3.5" fill="#ED3E36"/>
<circle cx="542.5" cy="677.5" r="3.5" fill="#ED3E36"/>
<circle cx="503.5" cy="691.5" r="3.5" fill="#ED3E36"/>
<circle cx="523.5" cy="631.5" r="3.5" fill="#ED3E36"/>
<circle cx="551.5" cy="604.5" r="3.5" fill="#ED3E36"/>
<circle cx="470.5" cy="663.5" r="3.5" fill="#ED3E36"/>
<circle cx="480.5" cy="712.5" r="3.5" fill="#ED3E36"/>
<circle cx="505.5" cy="714.5" r="3.5" fill="#ED3E36"/>
</g>
</svg>
